<?xml version="1.0" standalone="no"?>
<!DOCTYPE svg PUBLIC "-//W3C//DTD SVG 20010904//EN"
 "http://www.w3.org/TR/2001/REC-SVG-20010904/DTD/svg10.dtd">
<svg version="1.0" xmlns="http://www.w3.org/2000/svg"
 width="500.000000pt" height="500.000000pt" viewBox="0 0 500.000000 500.000000"
 preserveAspectRatio="xMidYMid meet">

<g transform="translate(0.000000,500.000000) scale(0.100000,-0.100000)"
fill="#000000" stroke="none">
<path d="M0 2500 l0 -2500 2500 0 2500 0 0 2500 0 2500 -2500 0 -2500 0 0
-2500z m2228 1408 c2 -11 -9 -17 -35 -21 -50 -8 -83 -33 -83 -61 0 -12 17 -50
38 -83 83 -137 427 -662 433 -663 8 0 276 379 322 457 71 117 94 222 62 283
-19 36 -55 56 -118 65 -35 5 -47 11 -45 22 3 14 50 16 363 15 312 0 360 -2
363 -15 2 -11 -11 -18 -49 -26 -115 -25 -268 -132 -395 -277 -68 -78 -122
-148 -318 -418 -128 -176 -136 -189 -123 -210 8 -11 121 -186 251 -388 205
-318 241 -368 262 -368 l24 0 0 254 0 255 -27 4 c-16 2 40 5 123 6 176 1 238
-12 278 -60 21 -25 26 -41 26 -85 0 -30 -7 -69 -16 -85 -20 -40 -88 -70 -171
-77 l-63 -5 0 -103 0 -104 53 -2 c28 -1 -15 -5 -96 -8 l-148 -5 57 -83 c68
-100 149 -181 210 -212 25 -12 74 -27 110 -33 46 -8 64 -15 64 -27 0 -13 -47
-15 -410 -15 -380 0 -410 1 -410 17 0 12 11 19 38 24 58 10 85 31 80 63 -4 29
-479 771 -489 765 -9 -5 -309 -437 -347 -499 -34 -57 -72 -161 -72 -201 0 -69
54 -120 141 -131 27 -4 39 -11 39 -22 0 -15 -33 -16 -362 -16 -318 1 -363 3
-366 17 -2 11 15 19 65 32 98 24 190 84 314 203 60 58 109 110 109 114 0 5
-48 10 -107 10 -60 1 -98 4 -85 6 21 4 22 8 22 129 l0 124 -75 0 -75 0 0 -124
c0 -121 1 -125 23 -129 12 -2 -32 -4 -98 -4 -66 0 -110 2 -97 4 l22 4 0 254 0
254 -22 4 c-13 2 31 4 97 4 66 0 110 -2 98 -4 -22 -4 -23 -8 -23 -124 l0 -119
75 0 75 0 0 119 c0 116 -1 120 -22 124 -13 2 31 4 97 4 66 0 110 -2 98 -4
l-23 -4 0 -255 c0 -241 1 -254 19 -254 12 0 59 55 143 168 201 270 288 389
288 395 0 13 -585 915 -622 959 -67 80 -145 129 -230 143 -27 4 -38 11 -38 23
0 16 29 17 388 16 334 -1 387 -3 390 -16z m-1010 -1172 l42 -1 -1 -75 c0 -73
0 -74 -17 -50 -9 14 -37 46 -63 73 -42 43 -50 47 -93 47 -70 0 -112 -48 -90
-105 8 -20 63 -48 139 -70 117 -33 156 -75 157 -169 1 -139 -93 -202 -260
-174 -72 13 -83 12 -97 -1 -13 -14 -15 -11 -15 24 0 22 -3 64 -6 93 -4 28 -3
52 2 52 5 0 23 -22 41 -49 44 -68 93 -103 152 -109 40 -3 52 0 76 20 20 18 28
34 28 56 0 49 -35 78 -129 108 -107 34 -149 68 -163 133 -13 60 -1 109 39 155
38 43 81 57 155 49 33 -3 79 -6 103 -7z m2847 -60 c9 -85 3 -100 -22 -51 -12
22 -32 50 -45 62 -23 22 -114 47 -130 37 -5 -3 -8 -57 -8 -120 l0 -114 28 0
c36 1 58 19 82 66 l19 39 1 -113 c0 -73 -4 -111 -10 -107 -5 3 -10 13 -10 21
0 25 -56 74 -84 74 l-26 0 0 -120 0 -120 40 0 c23 0 58 9 80 20 38 19 90 81
90 107 0 7 5 13 10 13 11 0 14 -101 4 -137 -6 -23 -7 -23 -210 -23 -129 0
-204 4 -204 10 0 6 9 10 20 10 19 0 20 7 20 249 l0 250 -22 4 c-13 2 66 5 174
6 l196 1 7 -64z m-1875 -1041 c0 -3 -15 -30 -34 -59 -19 -30 -42 -68 -51 -86
l-17 -33 30 22 c32 22 62 28 62 11 0 -6 -12 -33 -26 -61 -14 -28 -23 -53 -21
-55 10 -10 34 9 52 43 27 50 67 77 111 76 19 -1 37 -3 40 -5 2 -3 -6 -28 -18
-56 -21 -50 -21 -71 2 -57 6 4 35 45 65 91 30 46 59 84 65 84 14 0 13 -8 -8
-38 -34 -50 -35 -55 -4 -32 61 45 82 1 32 -68 -36 -49 -85 -79 -105 -62 -10 8
-21 -2 -50 -50 -50 -82 -80 -82 -34 0 21 37 21 38 2 57 -17 17 -23 18 -38 7
-10 -8 -35 -14 -54 -13 -20 0 -44 -1 -55 -3 -33 -5 -42 25 -19 71 11 22 18 41
14 41 -3 0 -26 -25 -51 -55 -25 -29 -51 -54 -57 -54 -18 -1 -17 1 23 82 62
124 114 207 129 207 8 0 15 -2 15 -5z m-333 -54 c-3 -13 1 -21 15 -24 28 -8
12 -27 -22 -27 -25 0 -32 -8 -66 -74 -21 -41 -36 -78 -32 -81 4 -4 21 3 38 15
28 20 32 21 29 5 -2 -10 -16 -27 -31 -38 -23 -17 -31 -19 -53 -9 -19 9 -31 9
-50 0 -21 -9 -29 -9 -42 5 -16 16 -16 20 5 62 12 25 22 51 22 57 0 11 29 37
43 38 14 0 6 -32 -19 -76 -30 -51 -29 -71 4 -48 18 12 55 72 80 127 2 4 -5 7
-15 7 -10 0 -24 4 -32 9 -26 16 5 40 42 34 24 -4 37 0 51 16 24 26 40 27 33 2z
m181 -88 c-2 -13 -13 -18 -40 -18 -22 0 -44 -7 -55 -17 -16 -17 -15 -18 15
-24 64 -13 67 -54 5 -80 -42 -18 -87 -6 -77 21 7 17 24 20 24 4 0 -7 10 -9 28
-4 46 11 47 23 3 35 -35 9 -42 15 -39 33 4 29 63 67 105 67 27 0 34 -4 31 -17z
m740 0 c-2 -12 -12 -17 -28 -16 -29 2 -80 -16 -80 -28 0 -5 12 -12 28 -15 30
-7 52 -22 52 -35 0 -16 -42 -47 -72 -53 -21 -4 -37 -1 -48 9 -15 13 -20 13
-48 0 -56 -28 -114 4 -78 44 9 10 16 27 16 39 0 27 45 62 81 62 16 0 29 -4 29
-9 0 -15 -28 -33 -40 -26 -6 4 -18 1 -27 -6 -14 -12 -13 -14 8 -19 22 -5 22
-7 -14 -29 -20 -12 -35 -27 -31 -32 9 -15 45 -10 71 11 25 20 25 20 42 -1 12
-16 23 -19 44 -14 37 10 34 21 -9 35 -45 15 -43 45 5 77 42 28 104 32 99 6z
m449 -10 c21 -54 -103 -166 -141 -128 -13 13 -23 6 -79 -56 -60 -66 -87 -79
-87 -44 0 8 13 29 29 47 15 18 34 44 40 56 l13 24 -30 -22 c-31 -23 -52 -20
-52 7 0 19 62 133 72 133 15 0 8 -32 -13 -66 -37 -61 -14 -58 41 4 80 91 93
83 34 -18 -41 -70 -40 -87 2 -35 16 19 42 51 58 71 17 20 39 39 50 44 26 9 56
1 63 -17z m73 7 c0 -6 -11 -33 -25 -60 -33 -65 -11 -57 46 16 23 30 48 54 55
54 18 0 18 -1 -11 -51 -14 -24 -25 -53 -25 -63 0 -18 2 -18 25 4 26 24 42 22
32 -4 -9 -22 -55 -49 -72 -42 -8 3 -15 15 -15 28 0 21 -1 21 -29 -6 -34 -32
-61 -29 -61 6 0 27 56 128 70 128 6 0 10 -5 10 -10z"/>
<path d="M3330 2585 c0 -137 1 -145 19 -145 11 0 32 10 47 23 24 21 27 32 32
99 5 91 -9 145 -45 159 -53 20 -53 20 -53 -136z"/>
<path d="M2254 1452 c-26 -21 -60 -72 -47 -72 15 0 51 29 73 60 24 34 9 41
-26 12z"/>
<path d="M2410 1425 c-44 -45 -49 -66 -12 -46 23 12 72 68 72 82 0 18 -17 8
-60 -36z"/>
<path d="M3145 1447 c-38 -38 -50 -86 -17 -68 21 11 46 39 61 68 19 37 -7 37
-44 0z"/>
</g>
</svg>
